<?xml version="1.0" standalone="no"?><!DOCTYPE svg PUBLIC "-//W3C//DTD SVG 1.1//EN" "http://www.w3.org/Graphics/SVG/1.1/DTD/svg11.dtd"><svg t="1723009117441" class="icon" viewBox="0 0 1024 1024" version="1.1" xmlns="http://www.w3.org/2000/svg" p-id="14192" data-spm-anchor-id="a313x.search_index.0.i10.79043a81WNoNer" xmlns:xlink="http://www.w3.org/1999/xlink" width="128" height="128"><path d="M629.36 235.94v105.07c0 49.15-34.48 90.24-80.58 100.41v0.01l0.06 55.51h254.88V313.51l-0.01-8-0.02-6.1-0.04-7.27-0.07-8.22-0.06-5.2-0.03-2.52-0.06-3.68-0.09-4.74-0.07-3.43-0.05-2.23-0.09-3.26-0.06-2.12-0.07-2.08-0.11-3.06-0.12-2.97-0.02-0.36-0.07-1.58-0.11-2.38-0.02-0.48-0.09-1.86-0.15-2.74-0.22-3.56-0.17-2.6-0.19-2.56-0.13-1.68-0.2-2.48-0.13-1.54-0.01-0.09-0.04-0.47-0.18-1.96-0.24-2.4-0.25-2.37-0.09-0.81-0.08-0.76-0.18-1.56-0.1-0.87-0.08-0.69-0.02-0.14-0.27-2.19-0.19-1.48-0.01-0.07-0.21-1.6-0.15-1.12c-0.18-1.28-0.36-2.56-0.55-3.83 0-0.02-0.01-0.05-0.01-0.07l-0.32-2.07v-0.01c-0.16-1-0.33-1.98-0.5-2.96-0.14-0.8-0.27-1.61-0.41-2.4-0.14-0.79-0.29-1.56-0.44-2.34-0.15-0.77-0.29-1.54-0.44-2.3-0.15-0.77-0.32-1.52-0.48-2.28-0.16-0.74-0.31-1.48-0.47-2.2-0.17-0.75-0.34-1.47-0.51-2.21-0.17-0.71-0.33-1.43-0.5-2.13-0.18-0.72-0.36-1.42-0.54-2.12-0.18-0.69-0.35-1.38-0.54-2.06-0.19-0.7-0.39-1.38-0.58-2.06-0.19-0.66-0.37-1.32-0.56-1.97-0.2-0.68-0.41-1.33-0.62-2-0.2-0.63-0.39-1.27-0.6-1.89-0.21-0.65-0.44-1.28-0.65-1.92-0.21-0.61-0.41-1.23-0.63-1.82-0.23-0.63-0.46-1.24-0.69-1.86-0.22-0.58-0.43-1.17-0.66-1.75-0.24-0.61-0.49-1.21-0.74-1.81-0.23-0.55-0.45-1.12-0.68-1.66-0.26-0.6-0.52-1.18-0.79-1.77-0.24-0.52-0.47-1.06-0.71-1.57-0.27-0.59-0.56-1.16-0.84-1.73-0.24-0.49-0.48-1-0.72-1.48-0.3-0.59-0.61-1.17-0.92-1.74-0.24-0.45-0.47-0.9-0.71-1.34-0.35-0.63-0.71-1.24-1.07-1.86-0.21-0.37-0.42-0.74-0.64-1.1-0.45-0.75-0.92-1.48-1.38-2.21-0.13-0.21-0.26-0.43-0.4-0.64a93.71 93.71 0 0 0-1.86-2.74c-9.56-13.51-23.29-24.64-43.61-33.8l-1.64-0.73c-0.64-0.28-1.29-0.55-1.94-0.83-1.66-0.7-3.33-1.39-5.01-2.04-0.25-0.1-0.5-0.19-0.75-0.29a218.8 218.8 0 0 0-5.39-2c-0.04-0.01-0.08-0.03-0.13-0.05-21.27-7.53-47.5-13.06-79.07-16.38l-3.29-0.34a781.4 781.4 0 0 0-5.63-0.52c-0.84-0.08-1.67-0.15-2.52-0.23-1.69-0.14-3.41-0.28-5.13-0.41-0.8-0.06-1.58-0.13-2.39-0.19-2.03-0.15-4.09-0.28-6.16-0.42-0.5-0.03-1-0.07-1.51-0.1-2.63-0.16-5.28-0.31-7.97-0.44l-3.67-0.17c-2.13-0.1-4.3-0.17-6.46-0.25-1.04-0.04-2.07-0.08-3.12-0.11-1.98-0.06-3.99-0.12-6-0.17-0.95-0.02-1.9-0.05-2.86-0.08-2.29-0.05-4.61-0.09-6.93-0.12-0.72-0.01-1.42-0.03-2.14-0.04-3.07-0.04-6.17-0.06-9.31-0.07H548.4v2.42l0.06 52.46v0.01c46.26 10.06 80.9 51.23 80.9 100.5z" fill="#ffffff" p-id="14193" data-spm-anchor-id="a313x.search_index.0.i5.79043a81WNoNer" class=""></path><path d="M477.25 441.12c-45.43-10.66-79.26-51.44-79.26-100.12V235.94c0-48.56 33.67-89.26 78.94-100.03v-0.01l-0.06-55.32H461.7c-1.36 0-2.71 0.01-4.06 0.01-2.03 0.01-4.05 0.02-6.05 0.04l-3.97 0.05h-0.02c-2.24 0.03-4.44 0.08-6.64 0.13l-2.63 0.06c-1.99 0.05-3.96 0.12-5.92 0.18-0.86 0.03-1.71 0.05-2.57 0.08-1.35 0.05-2.66 0.11-3.99 0.17-4.06 0.17-8.13 0.36-12.19 0.6l-3.58 0.22-2.94 0.19-2.91 0.21-2.88 0.22-2.86 0.23-2.83 0.24-2.8 0.25-2.78 0.26-2.75 0.27-2.72 0.28-1.35 0.15-2.68 0.3-1.18 0.14-0.15 0.02-2.65 0.32-1.31 0.16-2.61 0.33-2.58 0.34-0.05 0.01c-0.84 0.12-1.68 0.23-2.51 0.35l-2.53 0.37-0.19 0.03-1.07 0.16-2.49 0.38h-0.01c-1.47 0.23-2.94 0.47-4.41 0.72-0.16 0.03-0.32 0.05-0.47 0.08l-2.41 0.41-1.2 0.21-2.37 0.43-1.18 0.22-2.33 0.45c-1.55 0.3-3.07 0.62-4.59 0.94-0.85 0.18-1.72 0.35-2.56 0.53-1.3 0.28-2.58 0.57-3.86 0.87-0.77 0.18-1.54 0.35-2.3 0.52-1.37 0.32-2.71 0.66-4.05 1-0.63 0.16-1.28 0.31-1.91 0.47-1.95 0.5-3.87 1.02-5.75 1.55l-2.02 0.58-0.29 0.08-0.71 0.21-1.39 0.4-0.59 0.18c-0.65 0.2-1.29 0.39-1.93 0.59l-0.03 0.01-1.93 0.61c-0.73 0.23-1.44 0.47-2.15 0.71-1.78 0.59-3.56 1.2-5.33 1.83-21.51 7.75-37 17.13-48.36 28.49a87.052 87.052 0 0 0-6.58 7.36c-0.81 1.02-1.6 2.05-2.35 3.09-0.38 0.52-0.75 1.05-1.12 1.58-7.04 10.16-12.53 22.64-16.64 38.19l-0.45 1.74-0.44 1.77c-0.25 1.01-0.48 2.05-0.72 3.09-0.13 0.56-0.26 1.11-0.38 1.67-0.19 0.88-0.38 1.77-0.56 2.66-0.11 0.55-0.23 1.09-0.34 1.65-0.19 0.97-0.37 1.95-0.56 2.94-0.09 0.5-0.19 1-0.28 1.51-0.27 1.5-0.53 3.02-0.78 4.57l-0.32 2.05-0.03 0.23c-0.2 1.3-0.39 2.62-0.58 3.95l-0.29 2.13-0.31 2.4-0.2 1.6-0.19 1.6-0.28 2.4-0.18 1.61-0.17 1.61-0.25 2.43-0.23 2.45-0.15 1.65-0.14 1.67-0.14 1.68-0.2 2.56-0.19 2.6v0.01l-0.12 1.75-0.17 2.69-0.16 2.74-0.15 2.81-0.14 2.88-0.13 2.95-0.01 0.17-0.11 2.86-0.1 2.94-0.01 0.17-0.1 3.21-0.09 3.31-0.06 2.26-0.08 3.48-0.05 2.38-0.08 4.91-0.05 3.82-0.05 3.95-0.04 4.08-0.04 5.66-0.04 8.97-0.02 7.95-0.01 6.68v178.45h257.04l-0.06-55.82z" fill="#ffffff" p-id="14194" data-spm-anchor-id="a313x.search_index.0.i4.79043a81WNoNer" class=""></path><path d="M469.53 235.42V341.01c0 17.11 13.73 31.02 30.78 31.29h26.23c17.11 0 31.02-13.73 31.29-30.78V235.94c0-17.11-13.73-31.02-30.78-31.29h-26.23c-17.11-0.01-31.01 13.73-31.29 30.77z" fill="#6cb8f7" p-id="14195" data-spm-anchor-id="a313x.search_index.0.i11.79043a81WNoNer" class=""></path><path d="M562.3 9.04h-13.97V9l-35.77 0.04H461.7C149.85 9.04 148.74 149.16 148.74 322v380.03c0 172.85 140.12 312.97 312.97 312.97h100.6c172.85 0 312.97-140.12 312.97-312.97v-390.3c-0.1-168.09-5.15-302.69-312.98-302.69z m-13.84 126.41l-0.06-52.46v-2.42H564.36c3.14 0.01 6.24 0.03 9.31 0.07 0.72 0.01 1.42 0.02 2.14 0.04 2.33 0.03 4.65 0.07 6.93 0.12 0.96 0.02 1.9 0.05 2.86 0.08 2.01 0.05 4.02 0.1 6 0.17 1.05 0.03 2.08 0.08 3.12 0.11 2.17 0.08 4.33 0.16 6.46 0.25l3.67 0.17c2.69 0.13 5.34 0.28 7.97 0.44 0.51 0.03 1 0.07 1.51 0.1 2.07 0.13 4.13 0.27 6.16 0.42 0.8 0.06 1.59 0.12 2.39 0.19 1.72 0.13 3.44 0.27 5.13 0.41 0.85 0.07 1.68 0.15 2.52 0.23 1.89 0.17 3.78 0.34 5.63 0.52l3.29 0.34c31.57 3.32 57.8 8.85 79.07 16.38 0.04 0.01 0.08 0.03 0.13 0.05 1.81 0.64 3.61 1.31 5.39 2 0.25 0.1 0.5 0.19 0.75 0.29 1.68 0.66 3.35 1.34 5.01 2.04 0.65 0.27 1.3 0.54 1.94 0.83l1.64 0.73c20.32 9.16 34.05 20.29 43.61 33.8 0.63 0.9 1.25 1.81 1.86 2.74 0.14 0.21 0.26 0.43 0.4 0.64 0.47 0.73 0.93 1.46 1.38 2.21 0.22 0.36 0.42 0.74 0.64 1.1 0.36 0.62 0.72 1.23 1.07 1.86 0.24 0.44 0.47 0.89 0.71 1.34 0.31 0.58 0.62 1.15 0.92 1.74 0.25 0.48 0.48 0.99 0.72 1.48 0.28 0.58 0.57 1.14 0.84 1.73 0.24 0.52 0.47 1.05 0.71 1.57 0.26 0.59 0.53 1.17 0.79 1.77 0.23 0.54 0.46 1.11 0.68 1.66 0.25 0.6 0.5 1.19 0.74 1.81 0.22 0.57 0.44 1.16 0.66 1.75 0.23 0.62 0.47 1.23 0.69 1.86 0.21 0.6 0.42 1.22 0.63 1.82 0.22 0.64 0.44 1.27 0.65 1.92 0.2 0.62 0.4 1.26 0.6 1.89 0.21 0.66 0.42 1.32 0.62 2 0.19 0.64 0.38 1.31 0.56 1.97 0.2 0.68 0.39 1.36 0.58 2.06 0.18 0.67 0.36 1.37 0.54 2.06 0.18 0.71 0.37 1.4 0.54 2.12 0.17 0.7 0.34 1.42 0.5 2.13 0.17 0.73 0.35 1.46 0.51 2.21 0.16 0.72 0.31 1.47 0.47 2.2 0.16 0.76 0.32 1.51 0.48 2.28 0.15 0.76 0.3 1.53 0.44 2.3 0.15 0.78 0.3 1.55 0.44 2.34 0.14 0.79 0.28 1.59 0.41 2.4 0.17 0.98 0.34 1.96 0.5 2.96v0.01l0.32 2.07c0 0.02 0.01 0.05 0.01 0.07 0.19 1.28 0.38 2.55 0.55 3.83 0.01 0.11 0.03 0.21 0.05 0.32l0.11 0.8 0.21 1.6 0.01 0.07 0.19 1.48 0.27 2.19 0.02 0.14 0.08 0.69 0.1 0.87 0.18 1.56 0.08 0.76 0.09 0.81 0.25 2.37 0.24 2.4 0.18 1.96 0.04 0.47 0.01 0.09 0.14 1.55 0.2 2.48 0.13 1.68 0.19 2.56 0.17 2.6 0.22 3.56 0.15 2.74 0.09 1.86 0.02 0.48 0.11 2.38 0.07 1.58 0.02 0.36 0.12 2.97 0.11 3.06 0.07 2.09 0.06 2.12 0.09 3.26 0.05 2.23 0.07 3.43 0.09 4.74 0.06 3.68 0.03 2.52 0.06 5.2 0.07 8.22 0.04 7.27 0.02 6.1 0.01 8v183.42H548.85l-0.06-55.51-0.43 0.09c0.14-0.03 0.28-0.07 0.43-0.1 46.09-10.17 80.58-51.26 80.58-100.41v-105.1c-0.01-49.27-34.65-90.44-80.91-100.49-0.1-0.02-0.21-0.04-0.31-0.07l0.31 0.07z m-47.64 69.19h26.23c17.05 0.28 30.78 14.18 30.78 31.29V341.52c-0.28 17.05-14.18 30.78-31.29 30.78h-26.23c-17.05-0.28-30.78-14.18-30.78-31.29V235.42c0.28-17.04 14.18-30.78 31.29-30.78zM220.27 318.48l0.01-6.68 0.02-7.95 0.04-8.97 0.04-5.66 0.04-4.08 0.05-3.95 0.05-3.82 0.08-4.91 0.05-2.38 0.08-3.48 0.06-2.26 0.09-3.3 0.1-3.21 0.01-0.17 0.1-2.94 0.11-2.86 0.01-0.17 0.13-2.95 0.14-2.88 0.15-2.81 0.16-2.74 0.17-2.69 0.12-1.75v-0.01l0.19-2.6 0.2-2.56 0.14-1.68 0.14-1.67 0.15-1.65 0.23-2.45 0.25-2.43 0.17-1.61 0.18-1.61 0.28-2.4 0.19-1.6 0.2-1.6 0.31-2.4 0.29-2.13c0.19-1.34 0.38-2.65 0.58-3.95l0.03-0.23 0.32-2.05c0.25-1.55 0.51-3.07 0.78-4.57 0.09-0.51 0.19-1 0.28-1.51 0.18-0.99 0.37-1.98 0.56-2.94 0.11-0.56 0.23-1.1 0.34-1.65 0.18-0.89 0.37-1.79 0.56-2.66 0.12-0.56 0.25-1.12 0.38-1.67 0.24-1.04 0.47-2.08 0.72-3.09l0.44-1.77 0.45-1.74c4.11-15.55 9.6-28.03 16.64-38.19 0.37-0.53 0.74-1.06 1.12-1.58 0.76-1.05 1.54-2.08 2.35-3.09s1.65-2.02 2.51-3.01c1.3-1.48 2.65-2.93 4.07-4.35 11.36-11.36 26.85-20.74 48.36-28.49 1.74-0.63 3.52-1.23 5.33-1.83 0.72-0.24 1.43-0.48 2.15-0.71l1.93-0.61c0.01 0 0.02-0.01 0.03-0.01 0.64-0.2 1.28-0.4 1.93-0.59l0.59-0.18 1.39-0.42 0.71-0.21 0.29-0.08 2.02-0.58c1.88-0.53 3.8-1.04 5.75-1.55 0.63-0.16 1.28-0.32 1.91-0.47 1.34-0.34 2.68-0.67 4.05-1 0.76-0.18 1.53-0.35 2.3-0.52 1.28-0.29 2.56-0.58 3.86-0.87 0.84-0.18 1.71-0.36 2.56-0.53 1.52-0.32 3.03-0.63 4.59-0.94l2.33-0.45 1.18-0.22 2.37-0.43 1.2-0.21 2.41-0.41c0.16-0.03 0.32-0.05 0.47-0.08 1.47-0.25 2.94-0.49 4.41-0.72h0.01l2.49-0.38 1.07-0.16 0.19-0.03 2.53-0.37c0.83-0.12 1.67-0.23 2.51-0.35 0.02 0 0.03 0 0.05-0.01l2.58-0.34 2.61-0.33 1.31-0.16 2.65-0.32 0.15-0.02 1.18-0.14 2.68-0.3 1.35-0.15 2.73-0.28 2.75-0.27 2.78-0.26 2.8-0.25 2.83-0.24 2.86-0.23 2.88-0.22 2.91-0.21 2.94-0.19 3.58-0.22c3.98-0.23 8.06-0.43 12.19-0.6 1.33-0.06 2.65-0.12 3.99-0.17 0.85-0.03 1.71-0.05 2.57-0.08 1.96-0.07 3.93-0.13 5.92-0.18l2.63-0.06c2.2-0.05 4.4-0.1 6.64-0.13h0.02l3.97-0.05c2-0.02 4.02-0.03 6.05-0.04 1.35-0.01 2.7-0.01 4.06-0.01h15.17l0.06 55.32 0.51-0.12c-0.17 0.04-0.34 0.09-0.51 0.13C431.67 146.66 398 187.36 398 235.92v105.07c0 48.68 33.83 89.46 79.26 100.11 0.1 0.02 0.2 0.05 0.3 0.08l-0.3-0.07 0.06 55.81H220.27V318.48z m583.46 383.55l-0.03 3.99c-2.13 131.5-109.39 237.44-241.4 237.44H461.7l-3.99-0.03c-131.5-2.13-237.44-109.39-237.44-241.4V568.46h583.46v133.57z" fill="#8A8A8A" p-id="14196"></path><path d="M803.7 706.03l0.03-3.99V568.46H220.27v133.57c0 132 105.94 239.27 237.44 241.4l3.99 0.03h100.6c132 0 239.26-105.94 241.4-237.43z" fill="#ffffff" p-id="14197" data-spm-anchor-id="a313x.search_index.0.i9.79043a81WNoNer" class=""></path></svg>