<svg xmlns="http://www.w3.org/2000/svg" width="1em" height="1em" viewBox="0 0 24 24"><g fill="none" fill-rule="evenodd"><path d="M24 0v24H0V0zM12.594 23.258l-.012.002l-.071.035l-.02.004l-.014-.004l-.071-.036c-.01-.003-.019 0-.024.006l-.004.01l-.017.428l.005.02l.01.013l.104.074l.015.004l.012-.004l.104-.074l.012-.016l.004-.017l-.017-.427c-.002-.01-.009-.017-.016-.018m.264-.113l-.014.002l-.184.093l-.01.01l-.003.011l.018.43l.005.012l.008.008l.201.092c.012.004.023 0 .029-.008l.004-.014l-.034-.614c-.003-.012-.01-.02-.02-.022m-.715.002a.023.023 0 0 0-.027.006l-.006.014l-.034.614c0 .012.007.02.017.024l.015-.002l.201-.093l.01-.008l.003-.011l.018-.43l-.003-.012l-.01-.01z"/><path fill="#ffffff" d="M10 3a1 1 0 0 0-2 0v2a1 1 0 0 0 2 0zM5.464 4.05A1 1 0 1 0 4.05 5.464L5.464 6.88A1 1 0 1 0 6.88 5.464zM9.79 8.21c-.977-.326-1.906.603-1.58 1.58l3.532 10.598c.357 1.072 1.84 1.158 2.318.134l2.056-4.406l4.406-2.055c1.024-.478.938-1.962-.134-2.319zm3.254 9.76l-2.463-7.389l7.39 2.463l-2.948 1.375a1.25 1.25 0 0 0-.604.604zm.906-13.92a1 1 0 0 1 0 1.414L12.536 6.88a1 1 0 1 1-1.415-1.415l1.415-1.414a1 1 0 0 1 1.414 0M2 9a1 1 0 0 1 1-1h2a1 1 0 1 1 0 2H3a1 1 0 0 1-1-1m4.879 3.536a1 1 0 1 0-1.414-1.415L4.05 12.537a1 1 0 1 0 1.415 1.414z"/></g></svg>